<?xml version="1.0" encoding="utf-8"?>
<!DOCTYPE svg PUBLIC "-//W3C//DTD SVG 1.1//EN" "http://www.w3.org/Graphics/SVG/1.1/DTD/svg11.dtd">
<svg xmlns="http://www.w3.org/2000/svg" xmlns:xlink="http://www.w3.org/1999/xlink" version="1.1" width="100%" height="100%" viewBox="-105 -35 450 600">
 <title>Fibonacci climbing stairs</title>
 <desc>Using the Fibonacci sequence to count the ways one can ascend a staircase taking one or two steps at a time, by CMG Lee based on example 2 on p284 of "Applied Combinatorics" by Alan Tucker at http://www.isinj.com/mt-usamo/Applied%20Combinatorics%20(6th%20Edition)%20by%20Alan%20Tucker%20Wiley%20(2012).pdf and http://mathlesstraveled.com/2011/05/24/post-without-words-1 .</desc>
 <style type="text/css">
.main { font-family:Helvetica,Arial,sans-serif; font-size:44px; text-anchor:end; fill:none; stroke:#000000; }
text  { stroke:none; }
.step { stroke:none; }
.stair_1 { fill:#993300; }
.stair_2 { fill:#ff0000; }
.stair_3 { fill:#ff9900; }
.stair_4 { fill:#eecc00; }
.stair_5 { fill:#00cc00; }
.stair_6 { fill:#0066ff; }
.stair_7 { fill:#cc00ff; }
.stair_8 { fill:#666666; }
.count   { fill:#000000; }
 </style>
 <defs>
  <marker id="marker_arrow" markerWidth="8" markerHeight="8" refX="8" refY="4" orient="90" markerUnits="userSpaceOnUse">
   <path d="M 2,0 Q 3,3 8,4 Q 3,5 2,8" fill="none" stroke="#000000"/>
  </marker>
  <path id="bracket" transform="scale(0.1,1)" d="M 1,-1 c 0,-6 49,0 49,-6 c 0,6 49,0 49,6"/>
  <rect id="step_1" class="step" x="-9" y="-11" width="8" height="11" rx="4" ry="4"/>
  <rect id="step_2" class="step" x="-9" y="-21" width="8" height="21" rx="4" ry="4"/>
  <path id="step"   class="step" d="M 0,0 h -20 v 10 h 10"/>
 </defs>
 <circle cx="0" cy="0" r="99999" fill="#ffffff"/>
 <g class="main">
  <g transform="translate(0,0)">
   <text class="stair_1" x="-60" y="0">1:</text>
   <text class="count"   x="-5"  y="0">1</text>
   <g id="stair_1" class="stair_1">
    <use xlink:href="#step_1"  transform="translate(10,  0)"/>
   </g>
   <use xlink:href="#bracket" transform="translate( 0,  0) scale( 1,-1)"/>
   <path d="M 5,22 v -15 c 0,8 20,0 20,20 v 45" marker-start="url(#marker_arrow)" marker-end="url(#marker_arrow)"/>
  </g>
  <g transform="translate(0,50)">
   <text class="stair_2" x="-60" y="0">2:</text>
   <text class="count"   x="-5"  y="0">2</text>
   <g id="stair_2" class="stair_2">
    <use xlink:href="#stair_1" transform="translate( 0,-10)"/>
    <use xlink:href="#step_1"  transform="translate(10,  0)"/>
    <use xlink:href="#step_2"  transform="translate(20,  0)"/>
   </g>
   <use xlink:href="#bracket" transform="translate( 0,-20) scale( 1, 1)"/>
   <use xlink:href="#bracket" transform="translate( 0,  0) scale( 2,-1)"/>
   <path d="M 10,22 v -15 c 0,8 30,0 30,20 v 55" marker-start="url(#marker_arrow)" marker-end="url(#marker_arrow)"/>
  </g>
  <g transform="translate(0,110)">
   <text class="stair_3" x="-60" y="0">3:</text>
   <text class="count"   x="-5"  y="0">3</text>
   <g id="stair_3" class="stair_3">
    <use xlink:href="#stair_2" transform="translate( 0,-10)"/>
    <use xlink:href="#stair_1" transform="translate(20,-20)"/>
    <use xlink:href="#step_1"  transform="translate(10,  0)"/>
    <use xlink:href="#step_1"  transform="translate(20,  0)"/>
    <use xlink:href="#step_2"  transform="translate(30,  0)"/>
   </g>
   <use xlink:href="#bracket" transform="translate(20,-30) scale( 1, 1)"/>
   <use xlink:href="#bracket" transform="translate( 0,-30) scale( 2, 1)"/>
   <use xlink:href="#bracket" transform="translate( 0,  0) scale( 3,-1)"/>
   <path d="M 15,22 v -15 c 0,8 50,0 50,25 v 60" marker-start="url(#marker_arrow)" marker-end="url(#marker_arrow)"/>
  </g>
  <g transform="translate(0,180)">
   <text class="stair_4" x="-60" y="0">4:</text>
   <text class="count"   x="-5"  y="0">5</text>
   <g id="stair_4" class="stair_4">
    <use xlink:href="#stair_3" transform="translate( 0,-10)"/>
    <use xlink:href="#stair_2" transform="translate(30,-20)"/>
    <use xlink:href="#step_1"  transform="translate(10,  0)"/>
    <use xlink:href="#step_1"  transform="translate(20,  0)"/>
    <use xlink:href="#step_1"  transform="translate(30,  0)"/>
    <use xlink:href="#step_2"  transform="translate(40,  0)"/>
    <use xlink:href="#step_2"  transform="translate(50,  0)"/>
   </g>
   <use xlink:href="#bracket" transform="translate(30,-40) scale( 2, 1)"/>
   <use xlink:href="#bracket" transform="translate( 0,-40) scale( 3, 1)"/>
   <use xlink:href="#bracket" transform="translate( 0,  0) scale( 5,-1)"/>
   <path d="M 25,22 v -15 c 0,8 80,0 80,25 v 70" marker-start="url(#marker_arrow)" marker-end="url(#marker_arrow)"/>
  </g>
  <g transform="translate(0,260)">
   <text class="stair_5" x="-60" y="0">5:</text>
   <text class="count"   x="-5"  y="0">8</text>
   <g id="stair_5" class="stair_5">
    <use xlink:href="#stair_4" transform="translate( 0,-10)"/>
    <use xlink:href="#stair_3" transform="translate(50,-20)"/>
    <use xlink:href="#step_1"  transform="translate(10,  0)"/>
    <use xlink:href="#step_1"  transform="translate(20,  0)"/>
    <use xlink:href="#step_1"  transform="translate(30,  0)"/>
    <use xlink:href="#step_1"  transform="translate(40,  0)"/>
    <use xlink:href="#step_1"  transform="translate(50,  0)"/>
    <use xlink:href="#step_2"  transform="translate(60,  0)"/>
    <use xlink:href="#step_2"  transform="translate(70,  0)"/>
    <use xlink:href="#step_2"  transform="translate(80,  0)"/>
   </g>
   <use xlink:href="#bracket" transform="translate(50,-50) scale( 3, 1)"/>
   <use xlink:href="#bracket" transform="translate( 0,-50) scale( 5, 1)"/>
   <use xlink:href="#bracket" transform="translate( 0,  0) scale( 8,-1)"/>
   <path d="M 40,22 v -15 c 0,8 130,0 130,30 v 75" marker-start="url(#marker_arrow)" marker-end="url(#marker_arrow)"/>
  </g>
  <g transform="translate(0,350)">
   <text class="stair_6" x="-60" y="0">6:</text>
   <text class="count"   x="-5"  y="0">13</text>
   <g id="stair_6" class="stair_6">
    <use xlink:href="#stair_5" transform="translate(  0,-10)"/>
    <use xlink:href="#stair_4" transform="translate( 80,-20)"/>
    <use xlink:href="#step_1"  transform="translate( 10,  0)"/>
    <use xlink:href="#step_1"  transform="translate( 20,  0)"/>
    <use xlink:href="#step_1"  transform="translate( 30,  0)"/>
    <use xlink:href="#step_1"  transform="translate( 40,  0)"/>
    <use xlink:href="#step_1"  transform="translate( 50,  0)"/>
    <use xlink:href="#step_1"  transform="translate( 60,  0)"/>
    <use xlink:href="#step_1"  transform="translate( 70,  0)"/>
    <use xlink:href="#step_1"  transform="translate( 80,  0)"/>
    <use xlink:href="#step_2"  transform="translate( 90,  0)"/>
    <use xlink:href="#step_2"  transform="translate(100,  0)"/>
    <use xlink:href="#step_2"  transform="translate(110,  0)"/>
    <use xlink:href="#step_2"  transform="translate(120,  0)"/>
    <use xlink:href="#step_2"  transform="translate(130,  0)"/>
   </g>
   <use xlink:href="#bracket" transform="translate( 80,-60) scale( 5, 1)"/>
   <use xlink:href="#bracket" transform="translate(  0,-60) scale( 8, 1)"/>
   <use xlink:href="#bracket" transform="translate(  0,  0) scale(13,-1)"/>
   <path d="M 65,22 v -15 c 0,8 210,0 210,35 v 80" marker-start="url(#marker_arrow)" marker-end="url(#marker_arrow)"/>
  </g>
  <g transform="translate(0,450)">
   <text class="stair_7" x="-60" y="0">7:</text>
   <text class="count"   x="-5"  y="0">21</text>
   <g id="stair_7" class="stair_7">
    <use xlink:href="#stair_6" transform="translate(  0,-10)"/>
    <use xlink:href="#stair_5" transform="translate(130,-20)"/>
    <use xlink:href="#step_1"  transform="translate( 10,  0)"/>
    <use xlink:href="#step_1"  transform="translate( 20,  0)"/>
    <use xlink:href="#step_1"  transform="translate( 30,  0)"/>
    <use xlink:href="#step_1"  transform="translate( 40,  0)"/>
    <use xlink:href="#step_1"  transform="translate( 50,  0)"/>
    <use xlink:href="#step_1"  transform="translate( 60,  0)"/>
    <use xlink:href="#step_1"  transform="translate( 70,  0)"/>
    <use xlink:href="#step_1"  transform="translate( 80,  0)"/>
    <use xlink:href="#step_1"  transform="translate( 90,  0)"/>
    <use xlink:href="#step_1"  transform="translate(100,  0)"/>
    <use xlink:href="#step_1"  transform="translate(110,  0)"/>
    <use xlink:href="#step_1"  transform="translate(120,  0)"/>
    <use xlink:href="#step_1"  transform="translate(130,  0)"/>
    <use xlink:href="#step_2"  transform="translate(140,  0)"/>
    <use xlink:href="#step_2"  transform="translate(150,  0)"/>
    <use xlink:href="#step_2"  transform="translate(160,  0)"/>
    <use xlink:href="#step_2"  transform="translate(170,  0)"/>
    <use xlink:href="#step_2"  transform="translate(180,  0)"/>
    <use xlink:href="#step_2"  transform="translate(190,  0)"/>
    <use xlink:href="#step_2"  transform="translate(200,  0)"/>
    <use xlink:href="#step_2"  transform="translate(210,  0)"/>
   </g>
   <use xlink:href="#bracket" transform="translate(130,-71) scale( 8, 1)"/>
   <use xlink:href="#bracket" transform="translate(  0,-71) scale(13, 1)"/>
   <use xlink:href="#bracket" transform="translate(  0,  0) scale(21,-1)"/>
   <path d="M 105,22 v -15" marker-start="url(#marker_arrow)"/>
  </g>
  <g transform="translate(0,560)">
   <text class="stair_8" x="-60" y="0">8:</text>
   <text class="count"   x="-5"  y="0">34</text>
   <g id="stair_8" class="stair_8">
    <use xlink:href="#stair_7" transform="translate(  0,-10)"/>
    <use xlink:href="#stair_6" transform="translate(210,-20)"/>
    <use xlink:href="#step_1"  transform="translate( 10,  0)"/>
    <use xlink:href="#step_1"  transform="translate( 20,  0)"/>
    <use xlink:href="#step_1"  transform="translate( 30,  0)"/>
    <use xlink:href="#step_1"  transform="translate( 40,  0)"/>
    <use xlink:href="#step_1"  transform="translate( 50,  0)"/>
    <use xlink:href="#step_1"  transform="translate( 60,  0)"/>
    <use xlink:href="#step_1"  transform="translate( 70,  0)"/>
    <use xlink:href="#step_1"  transform="translate( 80,  0)"/>
    <use xlink:href="#step_1"  transform="translate( 90,  0)"/>
    <use xlink:href="#step_1"  transform="translate(100,  0)"/>
    <use xlink:href="#step_1"  transform="translate(110,  0)"/>
    <use xlink:href="#step_1"  transform="translate(120,  0)"/>
    <use xlink:href="#step_1"  transform="translate(130,  0)"/>
    <use xlink:href="#step_1"  transform="translate(140,  0)"/>
    <use xlink:href="#step_1"  transform="translate(150,  0)"/>
    <use xlink:href="#step_1"  transform="translate(160,  0)"/>
    <use xlink:href="#step_1"  transform="translate(170,  0)"/>
    <use xlink:href="#step_1"  transform="translate(180,  0)"/>
    <use xlink:href="#step_1"  transform="translate(190,  0)"/>
    <use xlink:href="#step_1"  transform="translate(200,  0)"/>
    <use xlink:href="#step_1"  transform="translate(210,  0)"/>
    <use xlink:href="#step_2"  transform="translate(220,  0)"/>
    <use xlink:href="#step_2"  transform="translate(230,  0)"/>
    <use xlink:href="#step_2"  transform="translate(240,  0)"/>
    <use xlink:href="#step_2"  transform="translate(250,  0)"/>
    <use xlink:href="#step_2"  transform="translate(260,  0)"/>
    <use xlink:href="#step_2"  transform="translate(270,  0)"/>
    <use xlink:href="#step_2"  transform="translate(280,  0)"/>
    <use xlink:href="#step_2"  transform="translate(290,  0)"/>
    <use xlink:href="#step_2"  transform="translate(300,  0)"/>
    <use xlink:href="#step_2"  transform="translate(310,  0)"/>
    <use xlink:href="#step_2"  transform="translate(320,  0)"/>
    <use xlink:href="#step_2"  transform="translate(330,  0)"/>
    <use xlink:href="#step_2"  transform="translate(340,  0)"/>
   </g>
   <use xlink:href="#bracket" transform="translate(210,-81) scale(13, 1)"/>
   <use xlink:href="#bracket" transform="translate(  0,-81) scale(21, 1)"/>
  </g>
  <g transform="translate(180,0) scale(2)">
    <rect class="step" fill="#eeeeee" x="-25" y="90" width="105" height="10" rx="2" ry="2"/>
    <use class="stair_1" xlink:href="#step"   transform="translate(80,10)"/>
    <use class="stair_2" xlink:href="#step"   transform="translate(70,20)"/>
    <use class="stair_3" xlink:href="#step"   transform="translate(60,30)"/>
    <use class="stair_4" xlink:href="#step"   transform="translate(50,40)"/>
    <use class="stair_5" xlink:href="#step"   transform="translate(40,50)"/>
    <use class="stair_6" xlink:href="#step"   transform="translate(30,60)"/>
    <use class="stair_7" xlink:href="#step"   transform="translate(20,70)"/>
    <use class="stair_8" xlink:href="#step"   transform="translate(10,80)"/>
    <use class="stair_3" xlink:href="#step_2" transform="translate(40, 5)"/>
    <use class="stair_6" xlink:href="#step_1" transform="translate(10,35)"/>
    <path d="M 35, 5 v 15 q 5,10 -2,20 h 5 m -8,-13 q -5,-10 5,-20 q 10,5 15,-5 m -15,15 q 15,-10 18,3 h 5"/>
    <path d="M  5,35 v 15 q 5,10 -2,20 h 5 m -8,-13 q -5,-10 5,-20 q 10,5 15,-5 m -15,15 q 20,-5  8,13 h 5"/>
  </g>
 </g>
</svg>
